HIERARCHY
ROOT Junyuan_V1:Solving:Hips
{
	OFFSET 0.000000 0.000000 0.000000
	CHANNELS 6 Xposition Yposition Zposition Xrotation Yrotation Zrotation
	JOINT Junyuan_V1:Solving:Spine
	{
		OFFSET 0.000000 -11.587388 2.561626
		CHANNELS 6 Xposition Yposition Zposition Xrotation Yrotation Zrotation
		JOINT Junyuan_V1:Solving:Spine1
		{
			OFFSET 0.000000 -9.293384 1.638677
			CHANNELS 6 Xposition Yposition Zposition Xrotation Yrotation Zrotation
			JOINT Junyuan_V1:Solving:Spine2
			{
				OFFSET 0.000000 -9.400841 0.822469
				CHANNELS 6 Xposition Yposition Zposition Xrotation Yrotation Zrotation
				JOINT Junyuan_V1:Solving:Spine3
				{
					OFFSET 0.000000 -9.436749 0.000000
					CHANNELS 6 Xposition Yposition Zposition Xrotation Yrotation Zrotation
					JOINT Junyuan_V1:Solving:Neck
					{
						OFFSET 0.000000 -12.132965 -1.213294
						CHANNELS 6 Xposition Yposition Zposition Xrotation Yrotation Zrotation
						JOINT Junyuan_V1:Solving:Neck1
						{
							OFFSET 0.000000 -6.347839 -0.555364
							CHANNELS 6 Xposition Yposition Zposition Xrotation Yrotation Zrotation
							JOINT Junyuan_V1:Solving:Head
							{
								OFFSET 0.000000 -6.275284 -1.106502
								CHANNELS 6 Xposition Yposition Zposition Xrotation Yrotation Zrotation
								JOINT Junyuan_V1:Solving:HeadEnd
								{
									OFFSET 0.000000 -9.728081 0.000002
									CHANNELS 6 Xposition Yposition Zposition Xrotation Yrotation Zrotation
									End Site
									{
										OFFSET 0.000000 -9.728081 0.000002
									}
								}
							}
						}
					}
					JOINT Junyuan_V1:Solving:RightShoulder
					{
						OFFSET 0.000000 -8.666405 -5.270916
						CHANNELS 6 Xposition Yposition Zposition Xrotation Yrotation Zrotation
						JOINT Junyuan_V1:Solving:RightArm
						{
							OFFSET -19.077805 -0.000008 0.000000
							CHANNELS 6 Xposition Yposition Zposition Xrotation Yrotation Zrotation
							JOINT Junyuan_V1:Solving:RightForeArm
							{
								OFFSET -27.209019 -0.000008 0.000000
								CHANNELS 6 Xposition Yposition Zposition Xrotation Yrotation Zrotation
								JOINT Junyuan_V1:Solving:RightHand
								{
									OFFSET -21.734264 -0.000008 0.000000
									CHANNELS 6 Xposition Yposition Zposition Xrotation Yrotation Zrotation
									JOINT Junyuan_V1:Solving:RightHandThumb1
									{
										OFFSET -3.883522 2.884647 -2.887744
										CHANNELS 6 Xposition Yposition Zposition Xrotation Yrotation Zrotation
										End Site
										{
											OFFSET -5.627335 0.000000 -5.679366
										}
									}
									JOINT Junyuan_V1:Solving:RightHandMiddle1
									{
										OFFSET -10.356049 -0.000004 0.066385
										CHANNELS 6 Xposition Yposition Zposition Xrotation Yrotation Zrotation
										End Site
										{
											OFFSET -7.995132 -0.000004 0.000000
										}
									}
								}
							}
						}
					}
					JOINT Junyuan_V1:Solving:LeftShoulder
					{
						OFFSET 0.000000 -8.666405 -5.270916
						CHANNELS 6 Xposition Yposition Zposition Xrotation Yrotation Zrotation
						JOINT Junyuan_V1:Solving:LeftArm
						{
							OFFSET 19.077805 -0.000008 0.000000
							CHANNELS 6 Xposition Yposition Zposition Xrotation Yrotation Zrotation
							JOINT Junyuan_V1:Solving:LeftForeArm
							{
								OFFSET 27.209019 -0.000008 0.000000
								CHANNELS 6 Xposition Yposition Zposition Xrotation Yrotation Zrotation
								JOINT Junyuan_V1:Solving:LeftHand
								{
									OFFSET 21.734264 -0.000008 0.000000
									CHANNELS 6 Xposition Yposition Zposition Xrotation Yrotation Zrotation
									JOINT Junyuan_V1:Solving:LeftHandThumb1
									{
										OFFSET 3.883522 2.884647 -2.887744
										CHANNELS 6 Xposition Yposition Zposition Xrotation Yrotation Zrotation
										End Site
										{
											OFFSET 5.627335 0.000000 -5.679366
										}
									}
									JOINT Junyuan_V1:Solving:LeftHandMiddle1
									{
										OFFSET 10.356049 -0.000004 0.066385
										CHANNELS 6 Xposition Yposition Zposition Xrotation Yrotation Zrotation
										End Site
										{
											OFFSET 7.995132 -0.000004 0.000000
										}
									}
								}
							}
						}
					}
				}
			}
		}
	}
	JOINT Junyuan_V1:Solving:RightUpLeg
	{
		OFFSET -10.145194 0.000000 0.000000
		CHANNELS 6 Xposition Yposition Zposition Xrotation Yrotation Zrotation
		JOINT Junyuan_V1:Solving:RightLeg
		{
			OFFSET 0.000000 45.059078 -0.000006
			CHANNELS 6 Xposition Yposition Zposition Xrotation Yrotation Zrotation
			JOINT Junyuan_V1:Solving:RightFoot
			{
				OFFSET 0.000000 37.058613 -0.000006
				CHANNELS 6 Xposition Yposition Zposition Xrotation Yrotation Zrotation
				JOINT Junyuan_V1:Solving:RightForeFoot
				{
					OFFSET 0.000000 3.397476 -0.000000
					CHANNELS 6 Xposition Yposition Zposition Xrotation Yrotation Zrotation
					JOINT Junyuan_V1:Solving:RightToeBase
					{
						OFFSET 0.000000 0.000000 -13.305598
						CHANNELS 6 Xposition Yposition Zposition Xrotation Yrotation Zrotation
						JOINT Junyuan_V1:Solving:RightToeBaseEnd
						{
							OFFSET 0.000000 0.000000 -4.190945
							CHANNELS 6 Xposition Yposition Zposition Xrotation Yrotation Zrotation
							End Site
							{
								OFFSET 0.000000 -4.190948 0.000000
							}
						}
					}
				}
			}
		}
	}
	JOINT Junyuan_V1:Solving:LeftUpLeg
	{
		OFFSET 10.145194 0.000000 0.000000
		CHANNELS 6 Xposition Yposition Zposition Xrotation Yrotation Zrotation
		JOINT Junyuan_V1:Solving:LeftLeg
		{
			OFFSET 0.000000 45.059078 -0.000006
			CHANNELS 6 Xposition Yposition Zposition Xrotation Yrotation Zrotation
			JOINT Junyuan_V1:Solving:LeftFoot
			{
				OFFSET 0.000000 37.058613 -0.000006
				CHANNELS 6 Xposition Yposition Zposition Xrotation Yrotation Zrotation
				JOINT Junyuan_V1:Solving:LeftForeFoot
				{
					OFFSET 0.000000 3.397476 -0.000000
					CHANNELS 6 Xposition Yposition Zposition Xrotation Yrotation Zrotation
					JOINT Junyuan_V1:Solving:LeftToeBase
					{
						OFFSET 0.000000 0.000000 -13.305598
						CHANNELS 6 Xposition Yposition Zposition Xrotation Yrotation Zrotation
						JOINT Junyuan_V1:Solving:LeftToeBaseEnd
						{
							OFFSET 0.000000 0.000000 -4.652039
							CHANNELS 6 Xposition Yposition Zposition Xrotation Yrotation Zrotation
							End Site
							{
								OFFSET 0.000000 -4.652039 0.000000
							}
						}
					}
				}
			}
		}
	}
}
MOTION
Frames: 5
Frame Time: 0.041667
-38.317650 70.224854 -88.725754 -84.901922 -4.417488 179.163607 0.000000 -11.587387 2.561621 13.580744 -0.492824 -2.784795 0.000006 -9.293366 1.638678 2.020295 0.054600 -0.349432 0.000006 -9.400840 0.822458 -1.884871 -1.195580 0.610490 -0.000003 -9.436714 0.000009 0.098824 -1.706218 2.185634 -0.000002 -12.132984 -1.213271 -7.237471 4.936246 -0.643295 -0.000004 -6.347828 -0.555356 -6.010025 -0.553736 4.274507 0.000006 -6.275301 -1.106497 -3.769693 -0.874260 2.923068 -0.000005 -9.728081 0.000003 0.000000 -0.000000 0.000000 0.000005 -8.666428 -5.270885 -0.000003 20.857876 11.948775 -19.077805 -0.000011 -0.000011 -15.276253 -6.083731 -57.457450 -27.209028 -0.000001 0.000003 1.176487 -2.072643 0.042557 -21.734278 0.000005 -0.000001 4.132390 -9.602863 23.417428 -3.883523 2.884635 -2.887739 0.000000 -0.000007 -0.000001 -10.356051 -0.000049 0.066414 -0.000001 -0.000000 -0.000003 -0.000001 -8.666428 -5.270885 -0.000006 -22.732570 -14.375050 19.077789 0.000001 0.000008 -11.799545 25.595328 55.607883 27.209019 -0.000003 0.000006 12.897435 13.965051 -3.162998 21.734295 0.000026 -0.000003 -1.663510 -3.988300 -22.663148 3.883524 2.884654 -2.887768 -0.000002 0.000010 0.000003 10.356058 0.000012 0.066358 0.000001 0.000002 0.000002 -10.145202 0.000002 -0.000010 8.772941 13.836486 -1.083472 -0.000000 45.059086 -0.000013 -1.430144 -0.000000 0.000000 0.000007 37.058594 -0.000016 1.433921 -0.944701 7.979459 -0.000002 3.397476 -0.000004 -0.000000 -0.000004 0.000000 0.000002 0.000005 -13.305597 5.997017 0.000001 -0.000000 0.000002 0.000000 -4.190947 0.000001 -0.000001 0.000000 10.145199 0.000009 -0.000007 -5.578718 -25.214437 -8.474680 0.000004 45.059071 -0.000005 25.131548 0.000003 -0.000002 0.000000 37.058605 -0.000016 -6.421859 -0.488418 14.023891 0.000007 3.397476 -0.000011 -0.000000 0.000001 -0.000003 0.000007 0.000006 -13.305602 11.556684 -0.000002 0.000000 -0.000001 0.000007 -4.652045 -0.000000 -0.000002 -0.000001 
-38.327682 70.208084 -88.715919 -84.897428 -4.353105 179.157993 -0.000011 -11.587393 2.561643 13.587956 -0.492475 -2.757979 0.000003 -9.293376 1.638678 2.027298 0.053328 -0.330687 0.000004 -9.400849 0.822470 -1.852927 -1.225212 0.612873 -0.000002 -9.436757 0.000011 0.136887 -1.710386 2.189980 -0.000003 -12.132988 -1.213316 -7.151314 4.825951 -0.613515 0.000009 -6.347800 -0.555378 -5.866023 -0.683516 4.238745 0.000002 -6.275319 -1.106494 -3.661500 -0.878505 2.921648 0.000007 -9.728096 0.000014 0.000000 0.000000 -0.000000 0.000002 -8.666420 -5.270928 -0.000011 20.742530 11.788819 -19.077795 -0.000019 -0.000012 -14.871656 -6.388168 -58.478639 -27.209021 -0.000018 -0.000005 1.204529 -2.076913 0.043665 -21.734230 -0.000005 0.000003 4.071612 -9.470556 23.394023 -3.883519 2.884632 -2.887759 -0.000003 -0.000003 -0.000007 -10.356063 -0.000024 0.066398 0.000000 -0.000001 0.000002 -0.000007 -8.666420 -5.270936 -0.000014 -22.744532 -14.260853 19.077803 0.000017 -0.000013 -11.558563 25.968545 55.990882 27.209019 -0.000006 -0.000001 13.403093 14.301771 -3.368829 21.734257 -0.000015 0.000000 -1.584275 -3.861980 -22.325047 3.883499 2.884680 -2.887763 0.000001 -0.000005 -0.000001 10.356028 0.000002 0.066381 0.000001 -0.000002 0.000003 -10.145193 -0.000017 -0.000002 8.823989 13.773264 -1.086971 0.000001 45.059086 0.000003 -1.495887 -0.000001 -0.000000 0.000002 37.058605 0.000005 1.423895 -0.799447 7.929334 -0.000004 3.397476 0.000005 -0.000000 -0.000003 -0.000000 -0.000001 0.000005 -13.305592 5.984797 -0.000002 -0.000000 -0.000002 -0.000000 -4.190941 -0.000001 -0.000001 0.000001 10.145187 0.000009 0.000014 -5.831007 -25.321292 -8.759983 -0.000017 45.059090 -0.000031 25.124793 0.000003 -0.000002 -0.000012 37.058620 -0.000012 -6.775810 -0.795222 13.938644 0.000004 3.397476 -0.000020 -0.000002 0.000000 0.000000 0.000006 0.000005 -13.305603 11.576361 0.000007 0.000001 0.000002 -0.000000 -4.652034 0.000000 -0.000000 -0.000003 
-38.343166 70.186844 -88.706429 -84.897749 -4.295450 179.152379 -0.000001 -11.587420 2.561621 13.582947 -0.489093 -2.734878 -0.000005 -9.293390 1.638660 2.028275 0.052164 -0.314797 -0.000002 -9.400828 0.822459 -1.813344 -1.261041 0.624213 -0.000003 -9.436774 0.000017 0.184097 -1.718804 2.210907 0.000004 -12.132945 -1.213272 -7.088794 4.727194 -0.602364 0.000009 -6.347788 -0.555362 -5.711451 -0.818082 4.204839 0.000001 -6.275346 -1.106510 -3.540215 -0.882348 2.920101 -0.000000 -9.728081 -0.000010 0.000001 0.000000 -0.000001 0.000009 -8.666397 -5.270895 -0.000004 20.624905 11.613430 -19.077803 -0.000002 -0.000009 -14.465740 -6.706250 -59.499158 -27.209032 0.000001 -0.000007 1.099138 -2.146387 0.041172 -21.734243 0.000005 0.000005 3.988516 -9.320338 23.293068 -3.883518 2.884669 -2.887738 -0.000002 -0.000003 0.000005 -10.356053 0.000004 0.066375 -0.000001 0.000004 0.000003 0.000006 -8.666382 -5.270896 -0.000006 -22.769423 -14.136599 19.077805 -0.000001 0.000002 -11.207766 26.454270 56.286421 27.209036 0.000013 -0.000008 13.583231 14.743831 -3.518735 21.734247 -0.000008 0.000009 -1.530843 -3.785392 -22.038135 3.883541 2.884629 -2.887756 0.000004 0.000007 0.000005 10.356090 -0.000033 0.066386 0.000003 0.000001 0.000003 -10.145195 -0.000021 0.000000 8.852409 13.831529 -1.082501 -0.000007 45.059090 0.000022 -1.513770 -0.000003 -0.000000 0.000002 37.058617 -0.000034 1.377507 -0.786511 7.894392 -0.000004 3.397476 -0.000011 0.000001 -0.000005 -0.000001 0.000002 0.000009 -13.305618 6.002089 -0.000001 -0.000000 0.000000 -0.000000 -4.190951 -0.000000 -0.000001 -0.000001 10.145187 -0.000020 -0.000021 -6.054196 -25.486728 -9.039942 -0.000016 45.059055 -0.000022 24.977527 -0.000002 -0.000003 -0.000014 37.058605 -0.000015 -7.077989 -1.177190 13.794827 0.000007 3.397476 -0.000001 -0.000001 -0.000000 0.000001 0.000006 0.000005 -13.305606 11.537772 0.000001 -0.000005 0.000017 0.000007 -4.652047 -0.000001 0.000001 -0.000001 
-38.368870 70.154907 -88.697884 -84.897305 -4.238847 179.135904 -0.000000 -11.587410 2.561625 13.569518 -0.473523 -2.703349 -0.000009 -9.293395 1.638669 2.027865 0.051560 -0.299086 0.000001 -9.400835 0.822491 -1.778656 -1.298356 0.634865 -0.000004 -9.436714 0.000019 0.237480 -1.726503 2.232233 0.000005 -12.132928 -1.213302 -7.012525 4.621467 -0.606941 0.000000 -6.347836 -0.555372 -5.564615 -0.957219 4.187191 0.000002 -6.275287 -1.106480 -3.410264 -0.890099 2.930809 -0.000003 -9.728088 0.000006 -0.000000 0.000000 0.000000 0.000004 -8.666363 -5.270926 -0.000007 20.511594 11.433454 -19.077805 -0.000010 0.000005 -14.073801 -7.040029 -60.506132 -27.209038 -0.000012 0.000001 1.049957 -2.259518 0.041403 -21.734266 -0.000016 -0.000001 3.937939 -9.243294 23.197996 -3.883533 2.884654 -2.887745 -0.000001 0.000002 0.000005 -10.356064 -0.000021 0.066376 -0.000002 0.000000 -0.000000 -0.000003 -8.666367 -5.270926 -0.000010 -22.795353 -14.009783 19.077795 0.000018 -0.000003 -11.049121 26.748942 56.662010 27.209042 -0.000007 0.000000 13.934102 15.047767 -3.685601 21.734259 -0.000002 -0.000011 -1.431629 -3.622219 -21.582933 3.883503 2.884641 -2.887746 0.000004 0.000007 -0.000005 10.356051 -0.000012 0.066396 0.000001 -0.000002 0.000003 -10.145198 -0.000020 0.000003 8.875303 13.963583 -1.058350 -0.000000 45.059082 0.000000 -1.512988 0.000003 0.000000 0.000000 37.058601 -0.000023 1.315187 -0.846484 7.843619 -0.000007 3.397476 -0.000008 -0.000001 -0.000005 -0.000000 -0.000001 0.000006 -13.305608 6.022429 -0.000000 -0.000000 0.000000 -0.000000 -4.190938 -0.000000 -0.000002 -0.000000 10.145186 -0.000019 0.000015 -6.260102 -25.764003 -9.318918 -0.000008 45.059082 -0.000012 24.715668 -0.000002 0.000001 -0.000005 37.058598 -0.000012 -7.322419 -1.553243 13.582595 0.000003 3.397484 -0.000010 0.000000 -0.000000 -0.000002 0.000001 0.000016 -13.305620 11.478105 0.000010 -0.000002 0.000016 0.000007 -4.652052 -0.000002 0.000002 0.000002 
-38.398655 70.120697 -88.688828 -84.910774 -4.201947 179.125577 -0.000003 -11.587398 2.561616 13.549487 -0.465751 -2.670562 -0.000003 -9.293373 1.638676 2.020953 0.049493 -0.283316 -0.000005 -9.400832 0.822457 -1.750606 -1.335452 0.644501 0.000005 -9.436736 0.000006 0.287283 -1.739636 2.257069 -0.000012 -12.132936 -1.213293 -6.946918 4.514314 -0.587592 -0.000000 -6.347836 -0.555360 -5.406049 -1.123793 4.144220 0.000004 -6.275306 -1.106523 -3.276210 -0.895264 2.926598 -0.000003 -9.728096 0.000011 0.000000 0.000000 0.000000 -0.000001 -8.666382 -5.270893 -0.000005 20.404172 11.251210 -19.077795 -0.000026 -0.000002 -13.685431 -7.401129 -61.511079 -27.209040 -0.000002 0.000009 1.052897 -2.399041 0.044080 -21.734257 -0.000002 0.000018 3.888755 -9.190729 23.054117 -3.883518 2.884640 -2.887764 -0.000002 -0.000007 0.000005 -10.356030 -0.000030 0.066392 -0.000002 -0.000003 0.000005 -0.000007 -8.666367 -5.270895 -0.000005 -22.822771 -13.886093 19.077803 -0.000002 -0.000009 -10.871744 27.044989 57.028548 27.209024 -0.000029 0.000002 14.240559 15.366433 -3.847521 21.734255 -0.000005 -0.000004 -1.365229 -3.532565 -21.145931 3.883518 2.884681 -2.887782 0.000001 0.000000 -0.000006 10.356065 -0.000007 0.066359 0.000000 0.000001 0.000001 -10.145196 -0.000015 -0.000012 8.859997 14.205453 -1.030861 0.000001 45.059074 -0.000002 -1.454139 -0.000002 -0.000000 0.000007 37.058613 -0.000015 1.220711 -1.037107 7.785646 0.000003 3.397476 -0.000008 -0.000001 0.000001 -0.000000 -0.000000 0.000003 -13.305589 6.038566 0.000003 0.000000 0.000001 -0.000000 -4.190947 -0.000000 -0.000001 0.000001 10.145187 0.000005 -0.000015 -6.410302 -25.968941 -9.554641 -0.000007 45.059082 -0.000020 24.304851 -0.000000 -0.000002 -0.000009 37.058598 -0.000010 -7.550871 -2.088399 13.307529 -0.000000 3.397476 -0.000002 0.000001 0.000003 -0.000002 -0.000002 0.000007 -13.305608 11.409681 0.000005 -0.000001 -0.000010 0.000014 -4.652037 -0.000002 0.000001 -0.000003 
